<svg width="55" height="48" viewBox="0 0 55 48" fill="none" xmlns="http://www.w3.org/2000/svg">
<path d="M28.8095 12.5674C28.8095 14.2178 28.4369 15.852 27.713 17.3767C26.9891 18.9015 25.9281 20.2869 24.5905 21.4539C23.2529 22.6209 21.6649 23.5466 19.9172 24.1781C18.1696 24.8097 16.2964 25.1348 14.4048 25.1348C12.5131 25.1348 10.64 24.8097 8.8923 24.1781C7.14463 23.5466 5.55666 22.6209 4.21906 21.4539C2.88145 20.2869 1.8204 18.9015 1.0965 17.3767C0.37259 15.852 -2.81879e-08 14.2178 0 12.5674C5.69281e-08 9.2343 1.51764 6.03774 4.21906 3.6809C6.92047 1.32406 10.5844 0 14.4048 0C18.2251 0 21.8891 1.32406 24.5905 3.6809C27.2919 6.03774 28.8095 9.2343 28.8095 12.5674ZM12.7129 17.9462L23.189 8.80631C23.4349 8.59178 23.5731 8.30081 23.5731 7.99742C23.5731 7.69403 23.4349 7.40307 23.189 7.18854C22.9432 6.97401 22.6097 6.85349 22.2619 6.85349C21.9142 6.85349 21.5807 6.97401 21.3348 7.18854L11.7857 15.5219L7.47476 11.7585C7.35301 11.6523 7.20846 11.568 7.04939 11.5105C6.89031 11.453 6.71981 11.4234 6.54762 11.4234C6.37543 11.4234 6.20493 11.453 6.04585 11.5105C5.88677 11.568 5.74223 11.6523 5.62048 11.7585C5.49872 11.8647 5.40214 11.9908 5.33625 12.1296C5.27036 12.2684 5.23644 12.4172 5.23644 12.5674C5.23644 12.7176 5.27036 12.8664 5.33625 13.0051C5.40214 13.1439 5.49872 13.27 5.62048 13.3763L10.8586 17.9462C10.9802 18.0526 11.1247 18.137 11.2838 18.1946C11.4429 18.2522 11.6135 18.2819 11.7857 18.2819C11.958 18.2819 12.1285 18.2522 12.2876 18.1946C12.4467 18.137 12.5912 18.0526 12.7129 17.9462ZM14.4048 27.4197C17.4582 27.4201 20.4556 26.7039 23.0827 25.3462C25.7099 23.9885 27.8702 22.0394 29.3372 19.703C30.8042 17.3666 31.5239 14.729 31.4209 12.0665C31.3179 9.40406 30.3961 6.81476 28.7519 4.56996H34.7024C36.2653 4.56996 37.7641 5.11162 38.8693 6.07578C39.9744 7.03994 40.5952 8.34763 40.5952 9.71116V11.4249H44.6548C46.9333 11.4249 49.0076 12.5697 49.9819 14.3657L54.4343 22.5619C54.8062 23.2497 55 24.0014 55 24.7623V37.1309C55 38.4944 54.3791 39.8021 53.274 40.7663C52.1689 41.7304 50.67 42.2721 49.1071 42.2721H44.4164C44.1084 43.8707 43.1611 45.3224 41.7425 46.3693C40.324 47.4163 38.526 47.9908 36.668 47.9908C34.8099 47.9908 33.012 47.4163 31.5934 46.3693C30.1749 45.3224 29.2275 43.8707 28.9195 42.2721H23.4614C23.1553 43.8746 22.2067 45.3302 20.7848 46.3793C19.3629 47.4284 17.5601 48.0027 15.6979 48C13.8358 47.9972 12.0352 47.4176 10.6174 46.3643C9.19958 45.311 8.25662 43.8527 7.95667 42.2492C6.49643 42.1287 5.14021 41.5373 4.15313 40.5908C3.16604 39.6442 2.61904 38.4106 2.61905 37.1309V23.2839C5.7858 25.9417 10.0106 27.4242 14.4048 27.4197ZM51.0714 33.1322H47.7976C47.2767 33.1322 46.777 33.3127 46.4087 33.6341C46.0403 33.9555 45.8333 34.3914 45.8333 34.8459C45.8333 35.3004 46.0403 35.7363 46.4087 36.0577C46.777 36.3791 47.2767 36.5597 47.7976 36.5597H51.0714V33.1322ZM50.2412 22.8498L46.4357 15.8326C46.2765 15.5393 46.0251 15.2914 45.7107 15.1179C45.3964 14.9444 45.032 14.8523 44.66 14.8524H40.5952V22.8498H50.2412ZM15.7143 44.5571C16.7562 44.5571 17.7555 44.196 18.4922 43.5532C19.229 42.9104 19.6429 42.0386 19.6429 41.1296C19.6429 40.2206 19.229 39.3488 18.4922 38.706C17.7555 38.0633 16.7562 37.7021 15.7143 37.7021C14.6724 37.7021 13.6731 38.0633 12.9364 38.706C12.1996 39.3488 11.7857 40.2206 11.7857 41.1296C11.7857 42.0386 12.1996 42.9104 12.9364 43.5532C13.6731 44.196 14.6724 44.5571 15.7143 44.5571ZM40.5952 41.1296C40.5952 40.2206 40.1813 39.3488 39.4446 38.706C38.7078 38.0633 37.7086 37.7021 36.6667 37.7021C35.6247 37.7021 34.6255 38.0633 33.8887 38.706C33.152 39.3488 32.7381 40.2206 32.7381 41.1296C32.7381 42.0386 33.152 42.9104 33.8887 43.5532C34.6255 44.196 35.6247 44.5571 36.6667 44.5571C37.7086 44.5571 38.7078 44.196 39.4446 43.5532C40.1813 42.9104 40.5952 42.0386 40.5952 41.1296Z" fill="black"/>
</svg>
