<svg width="46" height="46" viewBox="0 0 46 46" fill="none" xmlns="http://www.w3.org/2000/svg">
<path fill-rule="evenodd" clip-rule="evenodd" d="M0 23C0 16.9 2.42321 11.0499 6.73654 6.73654C11.0499 2.42321 16.9 0 23 0C29.1 0 34.9501 2.42321 39.2635 6.73654C43.5768 11.0499 46 16.9 46 23C46 29.1 43.5768 34.9501 39.2635 39.2635C34.9501 43.5768 29.1 46 23 46C16.9 46 11.0499 43.5768 6.73654 39.2635C2.42321 34.9501 0 29.1 0 23ZM25.0294 9.47059C25.0294 8.93235 24.8156 8.41617 24.435 8.03558C24.0544 7.65499 23.5382 7.44118 23 7.44118C22.4618 7.44118 21.9456 7.65499 21.565 8.03558C21.1844 8.41617 20.9706 8.93235 20.9706 9.47059V23C20.9704 23.3441 21.0578 23.6825 21.2244 23.9836C21.391 24.2846 21.6314 24.5384 21.9231 24.7209L30.0407 29.7945C30.4971 30.0801 31.0483 30.1727 31.573 30.0519C31.8328 29.9921 32.0783 29.8817 32.2955 29.7271C32.5126 29.5724 32.6972 29.3765 32.8386 29.1505C32.98 28.9245 33.0755 28.6728 33.1197 28.4099C33.1639 28.147 33.1558 27.878 33.0961 27.6182C33.0362 27.3583 32.9259 27.1129 32.7712 26.8957C32.6165 26.6786 32.4206 26.494 32.1946 26.3526L25.0294 21.8744V9.47059Z" fill="black"/>
</svg>
