<svg width="59" height="48" viewBox="0 0 59 48" fill="none" xmlns="http://www.w3.org/2000/svg">
<path fill-rule="evenodd" clip-rule="evenodd" d="M23.6217 0C22.0579 0 20.5582 0.62744 19.4524 1.74429C18.3466 2.86114 17.7254 4.37592 17.7254 5.95538V9.06112C14.5125 9.4908 11.5293 10.9779 9.23752 13.2924L0.900047 21.7163C0.618465 21.991 0.393866 22.3196 0.239354 22.6828C0.0848426 23.0461 0.00351298 23.4369 0.000111314 23.8322C-0.00329035 24.2276 0.0713039 24.6197 0.219541 24.9857C0.367779 25.3516 0.586691 25.6841 0.863505 25.9637C1.14032 26.2432 1.46949 26.4644 1.83181 26.6141C2.19413 26.7638 2.58235 26.8391 2.97381 26.8357C3.36527 26.8323 3.75213 26.7501 4.11182 26.5941C4.47151 26.438 4.79682 26.2112 5.06879 25.9268L13.4092 17.5088C14.5934 16.311 16.0903 15.4776 17.7254 15.1058V25.9625L15.8827 27.4513C15.2721 27.9449 14.8805 28.6633 14.7943 29.4484C14.708 30.2336 14.9341 31.0212 15.4228 31.638C15.9115 32.2547 16.6228 32.6502 17.4001 32.7373C18.1775 32.8244 18.9573 32.5961 19.568 32.1025L28.1266 25.1853C29.2599 24.2696 30.6878 23.8083 32.1369 23.8896C33.5861 23.9709 34.9546 24.5892 35.9805 25.626L36.8237 26.4776L17.5278 41.0921C17.0175 41.4787 16.3968 41.6877 15.7589 41.6877H2.98442C2.20251 41.6877 1.45262 42.0014 0.899732 42.5598C0.34684 43.1182 0.0362279 43.8756 0.0362279 44.6654C0.0362279 45.4551 0.34684 46.2125 0.899732 46.7709C1.45262 47.3293 2.20251 47.6431 2.98442 47.6431H15.7589C17.6726 47.6431 19.5347 47.0162 21.0657 45.8564L38.3627 32.7546H53.1036C54.6674 32.7546 56.1672 32.1272 57.273 31.0103C58.3788 29.8935 59 28.3787 59 26.7992V5.95538C59 4.37592 58.3788 2.86114 57.273 1.74429C56.1672 0.62744 54.6674 0 53.1036 0H23.6217ZM23.6217 21.2012L24.4443 20.5371C26.7104 18.7062 29.5654 17.7835 32.463 17.9455C35.3605 18.1076 38.0972 19.3431 40.1493 21.4156L40.9925 22.2672C42.2337 23.5208 42.7968 25.1794 42.7113 26.7992H53.1036V14.8885H23.6217V21.2012ZM53.1036 8.93307V5.95538H23.6217V8.93307H53.1036Z" fill="black"/>
</svg>
