<svg width="59" height="59" viewBox="0 0 59 59" fill="none" xmlns="http://www.w3.org/2000/svg">
<path d="M20.3326 0L0.1964 11.3065L7.38931 19.3837L27.5252 8.07765L20.3326 0ZM38.6675 0L31.4749 8.07765L51.6108 19.3837L58.8039 11.3067L38.6675 0ZM29.5001 9.90622L28.331 10.5629V31.4016L29.5001 32.0581L30.6691 31.4016V10.5629L29.5001 9.90622ZM7.48062 22.6323L0 33.1334L18.1261 44.4424L27.525 33.8874L7.48062 22.6323ZM51.5195 22.6323L31.4751 33.8873L40.874 44.4424L59 33.1334L51.5195 22.6323ZM28.331 36.6974L18.5323 47.7012L8.32753 41.3349V47.7681L28.331 59V36.6974ZM30.6691 36.6974V59L50.6726 47.7681V41.3346L40.4678 47.7014L30.6691 36.6974Z" fill="black"/>
</svg>
