<svg width="37" height="37" viewBox="0 0 37 37" fill="none" xmlns="http://www.w3.org/2000/svg">
<path d="M10.1998 32.375C9.48964 32.375 8.89712 32.1376 8.42229 31.6628C7.94745 31.1879 7.70952 30.5954 7.7085 29.8852V13.2815C7.7085 12.5723 7.94643 11.9803 8.42229 11.5055C8.89815 11.0306 9.49066 10.7927 10.1998 10.7917H13.1043V10.0208C13.1043 8.52233 13.629 7.2484 14.6784 6.19904C15.7277 5.14968 17.0017 4.625 18.5002 4.625C19.9987 4.625 21.2726 5.14968 22.322 6.19904C23.3713 7.2484 23.896 8.52233 23.896 10.0208V10.7917H26.802C27.5112 10.7917 28.1032 11.0296 28.578 11.5055C29.0529 11.9813 29.2908 12.5738 29.2918 13.283V29.8852C29.2918 30.5944 29.0539 31.1869 28.578 31.6628C28.1022 32.1386 27.5102 32.376 26.802 32.375H10.1998ZM10.1998 30.8333H26.802C27.0384 30.8333 27.2558 30.7347 27.4542 30.5373C27.6525 30.34 27.7512 30.1221 27.7502 29.8837V13.283C27.7502 13.0456 27.6515 12.8277 27.4542 12.6293C27.2568 12.431 27.0389 12.3323 26.8005 12.3333H23.896V16.1875C23.896 16.4074 23.8225 16.5909 23.6755 16.7379C23.5286 16.8848 23.3451 16.9583 23.1252 16.9583C22.9052 16.9583 22.7218 16.8848 22.5748 16.7379C22.4278 16.5909 22.3543 16.4074 22.3543 16.1875V12.3333H14.646V16.1875C14.646 16.4074 14.5725 16.5909 14.4255 16.7379C14.2786 16.8848 14.0951 16.9583 13.8752 16.9583C13.6552 16.9583 13.4718 16.8848 13.3248 16.7379C13.1778 16.5909 13.1043 16.4074 13.1043 16.1875V12.3333H10.1998C9.96241 12.3333 9.74452 12.432 9.54616 12.6293C9.3478 12.8267 9.24913 13.0446 9.25016 13.283V29.8852C9.25016 30.1216 9.34883 30.339 9.54616 30.5373C9.7435 30.7357 9.96087 30.8344 10.1983 30.8333M14.646 10.7917H22.3543V10.0208C22.3543 8.9355 21.9833 8.02181 21.2412 7.27975C20.4992 6.53769 19.5855 6.16667 18.5002 6.16667C17.4148 6.16667 16.5011 6.53769 15.7591 7.27975C15.017 8.02181 14.646 8.9355 14.646 10.0208V10.7917Z" fill="white"/>
</svg>
