<svg width="21" height="21" viewBox="0 0 21 21" fill="none" xmlns="http://www.w3.org/2000/svg">
<path d="M19.5963 20.4813L11.7687 12.6538C11.1437 13.1863 10.425 13.5983 9.6125 13.89C8.8 14.1817 7.98333 14.3275 7.1625 14.3275C5.16083 14.3275 3.46667 13.6346 2.08 12.2488C0.693333 10.8629 0 9.16917 0 7.1675C0 5.16584 0.6925 3.47125 2.0775 2.08375C3.4625 0.696253 5.15583 0.00166966 7.1575 2.9976e-06C9.15917 -0.00166367 10.8542 0.69167 12.2425 2.08C13.6308 3.46834 14.325 5.16292 14.325 7.16375C14.325 8.03209 14.1712 8.8725 13.8637 9.685C13.5562 10.4975 13.1521 11.1925 12.6513 11.77L20.4787 19.5963L19.5963 20.4813ZM7.16375 13.0763C8.82208 13.0763 10.2221 12.5054 11.3637 11.3638C12.5054 10.2221 13.0763 8.82167 13.0763 7.1625C13.0763 5.50334 12.5054 4.10334 11.3637 2.9625C10.2221 1.82167 8.82208 1.25084 7.16375 1.25C5.50542 1.24917 4.105 1.82 2.9625 2.9625C1.82 4.105 1.24917 5.505 1.25 7.1625C1.25083 8.82 1.82167 10.22 2.9625 11.3625C4.10333 12.505 5.50333 13.0758 7.1625 13.075" fill="black"/>
</svg>
