<svg width="29" height="32" viewBox="0 0 29 32" fill="none" xmlns="http://www.w3.org/2000/svg">
<path d="M1 7.66667H28M2.6875 7.66667L4.375 27.6667C4.375 28.5507 4.73058 29.3986 5.36351 30.0237C5.99645 30.6488 6.85489 31 7.75 31H21.25C22.1451 31 23.0035 30.6488 23.6365 30.0237C24.2694 29.3986 24.625 28.5507 24.625 27.6667L26.3125 7.66667M9.4375 7.66667V2.66667C9.4375 2.22464 9.61529 1.80072 9.93176 1.48816C10.2482 1.17559 10.6774 1 11.125 1H17.875C18.3226 1 18.7518 1.17559 19.0682 1.48816C19.3847 1.80072 19.5625 2.22464 19.5625 2.66667V7.66667M11.125 16L17.875 22.6667M17.875 16L11.125 22.6667" stroke="black" stroke-width="2" stroke-linecap="round" stroke-linejoin="round"/>
</svg>
