<svg width="226" height="117" viewBox="0 0 226 117" fill="none" xmlns="http://www.w3.org/2000/svg">
<mask id="path-1-inside-1_589_173" fill="white">
<path d="M0 0H226V117H0V0Z"/>
</mask>
<path d="M226 117V116H0V117V118H226V117Z" fill="white" mask="url(#path-1-inside-1_589_173)"/>
<path d="M20.7754 86.1191L21.332 72.2031C15.375 71.3633 10.7852 69.2148 7.5625 65.7578C4.35938 62.3008 2.75781 57.584 2.75781 51.6074C2.75781 45.2402 4.84766 40.3477 9.02734 36.9297C13.6367 33.1211 20.4824 31.2168 29.5645 31.2168C44.1152 31.2168 52.25 35.3965 53.9688 43.7559C54.2031 44.9668 54.7207 45.8945 55.5215 46.5391L55.0234 47.1836C54.0859 46.4805 53.0703 46.1777 51.9766 46.2754L40.6973 46.9785C39.3887 47.0762 38.5391 47.5547 38.1484 48.4141L37.1816 47.9453C37.377 47.5156 37.4746 47.1445 37.4746 46.832C37.4746 45.8164 37.1328 44.9375 36.4492 44.1953C35.7852 43.4336 34.9355 42.8672 33.9004 42.4961C31.8887 41.7734 29.9355 41.4121 28.041 41.4121C25.1504 41.4121 22.8945 42.3984 21.2734 44.3711C19.6719 46.3242 18.8711 48.873 18.8711 52.0176C18.8711 55.1426 19.7793 57.7012 21.5957 59.6934C23.4316 61.666 26 62.6523 29.3008 62.6523C30.3555 62.6523 31.5273 62.3984 32.8164 61.8906C34.125 61.3633 35.2773 60.6113 36.2734 59.6348C37.2891 58.6582 37.7969 57.623 37.7969 56.5293C37.7969 56.2168 37.6895 55.8262 37.4746 55.3574L38.4414 54.8594C38.9102 55.7383 39.6621 56.2168 40.6973 56.2949C41.752 56.373 43.1094 56.4805 44.7695 56.6172C48.4219 56.9492 50.9609 57.1152 52.3867 57.1152C53.8125 57.1152 54.9355 56.8125 55.7559 56.207L56.2246 56.8223C55.502 57.3691 54.9551 58.3848 54.584 59.8691C54.2324 61.334 53.5391 62.75 52.5039 64.1172C51.4688 65.4648 50.2969 66.5879 48.9883 67.4863C47.6992 68.3652 46.1953 69.1367 44.4766 69.8008C41.5273 70.9727 38.2949 71.8027 34.7793 72.291C34.7793 74.0879 35.0137 76.7539 35.4824 80.2891C35.9512 83.8242 36.1855 86.1777 36.1855 87.3496C36.1855 88.5215 36.0391 89.3418 35.7461 89.8105C35.4727 90.2793 35.0625 90.5137 34.5156 90.5137C33.9688 90.5137 33.5488 90.2793 33.2559 89.8105C32.9629 89.3418 32.8164 88.5898 32.8164 87.5547C32.8164 86.5391 32.9727 84.5566 33.2852 81.6074C33.6172 78.6582 33.7832 76.6855 33.7832 75.6895C33.7832 74.6934 33.7344 74.0195 33.6367 73.668C33.5391 73.3164 33.4219 73.043 33.2852 72.8477C33.1484 72.6719 32.9141 72.5352 32.582 72.4375C31.8203 72.2422 30.9023 72.1934 29.8281 72.291C27.6797 72.4668 26.6055 72.8281 26.6055 73.375L27.3086 81.3438C27.3086 82.6133 26.9375 83.248 26.1953 83.248C25.4531 83.248 25.082 82.7109 25.082 81.6367C25.082 80.5625 25.209 79.1367 25.4629 77.3594C25.7363 75.582 25.873 74.3027 25.873 73.5215C25.873 72.7598 25.6191 72.3789 25.1113 72.3789C24.1152 72.3789 23.4414 72.4863 23.0898 72.7012C22.7578 72.916 22.5918 73.1113 22.5918 73.2871L22.9141 85.9727C22.9141 86.3047 22.8066 86.5977 22.5918 86.8516C22.377 87.125 22.1133 87.2617 21.8008 87.2617C21.4883 87.2617 21.2344 87.1445 21.0391 86.9102C20.8633 86.6953 20.7754 86.4316 20.7754 86.1191ZM87.2793 76.2461L87.4844 73.4336C87.4844 72.9453 87.25 72.5645 86.7812 72.291C86.3125 72.0371 85.8047 71.9102 85.2578 71.9102C84.7109 71.9102 84.2227 72.0566 83.793 72.3496C83.3633 72.6426 83.1484 73.0625 83.1484 73.6094V80.3477C83.1484 81.3242 83.3535 82.7598 83.7637 84.6543C84.1738 86.5488 84.3789 87.8965 84.3789 88.6973C84.3789 89.5176 84.2031 90.1914 83.8516 90.7188C83.5 91.2461 83.0117 91.5098 82.3867 91.5098C81.7812 91.5098 81.3223 91.2363 81.0098 90.6895C80.6973 90.1426 80.541 89.4297 80.541 88.5508C80.541 87.6719 80.7656 86.1484 81.2148 83.9805C81.6641 81.8125 81.8887 80.1328 81.8887 78.9414C81.8887 74.1172 80.9902 71.7051 79.1934 71.7051C76.7715 71.7051 75.5605 71.6074 75.5605 71.4121V71.4707C75.5605 72.8184 75.8535 74.791 76.4395 77.3887C77.0449 80.0059 77.3477 81.8809 77.3477 83.0137C77.3477 84.1465 77.1426 85.0742 76.7324 85.7969C76.3223 86.5391 75.6875 86.9102 74.8281 86.9102C73.9883 86.9102 73.3242 86.5586 72.8359 85.8555C72.3672 85.1523 72.1328 84.2344 72.1328 83.1016C72.1328 81.9883 72.416 80.0645 72.9824 77.3301C73.5488 74.6152 73.832 72.5547 73.832 71.1484C69.2031 69.6836 65.7168 67.291 63.373 63.9707C61.0488 60.6504 59.8867 56.5488 59.8867 51.666C59.8867 41.5488 64.9844 35.1621 75.1797 32.5059C78.4805 31.6465 81.8887 31.2168 85.4043 31.2168C88.9395 31.2168 91.9375 31.4121 94.3984 31.8027C96.8789 32.1934 99.2715 32.8867 101.576 33.8828C103.9 34.8594 105.873 36.1094 107.494 37.6328C109.135 39.1367 110.443 41.0898 111.42 43.4922C112.396 45.875 112.885 48.5996 112.885 51.666C112.885 57.916 111.127 62.7598 107.611 66.1973C104.096 69.6152 99.1543 71.7148 92.7871 72.4961C92.709 72.6328 92.6699 72.8477 92.6699 73.1406L92.8164 74.752C92.8164 75.748 92.543 76.2461 91.9961 76.2461C91.4492 76.2461 91.1758 75.7676 91.1758 74.8105L91.2637 73.1699C91.2637 72.584 90.8438 72.291 90.0039 72.291C89.9258 72.4668 89.8867 72.7988 89.8867 73.2871L90.0332 76.1289C90.0332 76.7148 89.9258 77.2812 89.7109 77.8281C89.4961 78.375 89.1348 78.6484 88.627 78.6484C87.7285 78.6484 87.2793 77.8477 87.2793 76.2461ZM76.2051 51.6953C76.2051 58.8438 79.6035 62.418 86.4004 62.418C93.1973 62.418 96.5957 58.8438 96.5957 51.6953C96.5957 48.4141 95.7168 45.9043 93.959 44.166C92.2012 42.4277 89.6816 41.5586 86.4004 41.5586C83.1191 41.5586 80.5996 42.4277 78.8418 44.166C77.084 45.9043 76.2051 48.4141 76.2051 51.6953ZM136 78.7363L136.615 74.5762C136.615 71.7051 133.549 70.2695 127.416 70.2695C126.361 70.2695 125.629 70.5137 125.219 71.002C124.809 71.4902 124.604 72.3203 124.604 73.4922C124.604 74.6641 124.779 76.2852 125.131 78.3555C125.482 80.4453 125.658 82.0371 125.658 83.1309C125.658 84.2441 125.219 84.8008 124.34 84.8008C123.461 84.8008 123.021 84.2148 123.021 83.043C123.021 81.8906 123.158 80.1426 123.432 77.7988C123.705 75.4551 123.842 73.8633 123.842 73.0234C123.842 71.0312 123.48 70.0352 122.758 70.0352C122.289 70.0352 122.055 70.5918 122.055 71.7051L122.758 76.5684C122.758 77.7207 122.338 78.2969 121.498 78.2969C120.678 78.2969 120.268 77.7109 120.268 76.5391L120.941 71.1484L120.912 66.2852V34.8496C120.912 33.6387 120.531 32.6621 119.77 31.9199L120.355 31.3047C121.156 32.0859 122.133 32.4766 123.285 32.4766H147.484C159.164 32.4766 166.41 36.2754 169.223 43.873C170.004 46.0215 170.395 48.3164 170.395 50.7578C170.395 53.1797 170.238 55.2695 169.926 57.0273C169.633 58.7656 169.252 60.2988 168.783 61.627C168.314 62.9355 167.65 64.0977 166.791 65.1133C165.951 66.1289 165.102 66.9883 164.242 67.6914C163.402 68.375 162.328 68.9609 161.02 69.4492C159.711 69.9375 158.5 70.3184 157.387 70.5918C156.273 70.8457 154.877 71.041 153.197 71.1777C150.561 71.3926 147.465 71.5 143.91 71.5H139.662C138.021 71.5 137.201 72.6719 137.201 75.0156L137.67 78.7656C137.67 79.5078 137.416 79.8789 136.908 79.8789C136.303 79.8789 136 79.498 136 78.7363ZM152.787 58.5801C153.393 57.7988 153.861 56.793 154.193 55.5625C154.525 54.3125 154.691 52.8184 154.691 51.0801C154.691 49.3223 154.398 47.8574 153.812 46.6855C153.227 45.5137 152.445 44.6543 151.469 44.1074C150.492 43.5605 149.408 43.1602 148.217 42.9062C147.025 42.6328 145.775 42.4863 144.467 42.4668C143.158 42.4277 141.938 42.3984 140.805 42.3789C138.031 42.3398 136.254 41.9297 135.473 41.1484L134.887 41.7344C135.629 42.457 136 43.4336 136 44.6641V51.4023C136 55.8945 136.02 59.2539 136.059 61.4805H142.709C146.049 61.4805 148.412 61.1875 149.799 60.6016C151.205 60.0156 152.201 59.3418 152.787 58.5801ZM137.875 89.1074C137.875 90.0059 137.543 90.4551 136.879 90.4551C136.234 90.4551 135.912 90.084 135.912 89.3418C135.912 88.6191 135.951 87.9844 136.029 87.4375C136.127 86.8906 136.283 86.1875 136.498 85.3281C136.713 84.4883 136.84 83.9609 136.879 83.7461C136.938 84 137.045 84.4199 137.201 85.0059C137.357 85.6113 137.475 86.0801 137.553 86.4121C137.768 87.3301 137.875 88.2285 137.875 89.1074ZM194.623 66.6367L194.154 63.0039V62.6816C194.564 61.959 195.121 61.5977 195.824 61.5977L219.73 61.627C220.922 61.627 221.889 61.2461 222.631 60.4844L223.217 61.0703C222.123 63.082 221.576 66.7246 221.576 71.998C221.576 72.8184 221.752 74.4004 222.104 76.7441C222.475 79.1074 222.66 80.6699 222.66 81.4316C222.66 82.2129 222.533 82.7891 222.279 83.1602C222.025 83.5312 221.723 83.7168 221.371 83.7168C221.02 83.7168 220.707 83.5117 220.434 83.1016C220.18 82.6914 220.053 82.125 220.053 81.4023L220.521 74.9277C220.521 73.209 220.219 71.9199 219.613 71.0605C219.008 70.1816 218.188 69.7422 217.152 69.7422C214.828 69.7422 213.666 71.4902 213.666 74.9863C213.666 76.334 213.861 78.2871 214.252 80.8457C214.662 83.4043 214.867 85.0059 214.867 85.6504C214.867 86.2949 214.721 86.7832 214.428 87.1152C214.135 87.4668 213.793 87.6426 213.402 87.6426C213.031 87.6426 212.699 87.4766 212.406 87.1445C212.133 86.832 211.996 86.4023 211.996 85.8555L212.523 76.5098C212.523 73.0918 211.791 71.3828 210.326 71.3828L208.1 71.4414H185.072C183.334 71.4414 182.055 71.7734 181.234 72.4375C180.297 73.2188 179.828 75.4258 179.828 79.0586C179.828 80.5234 180.053 82.6816 180.502 85.5332C180.951 88.4043 181.176 90.5625 181.176 92.0078C181.176 94.0977 180.434 95.1426 178.949 95.1426C177.348 95.1426 176.547 94.0684 176.547 91.9199C176.547 90.4551 176.869 88.2871 177.514 85.416C178.158 82.5449 178.48 80.3672 178.48 78.8828L178.334 69.0684V34.9082C178.334 33.6973 177.963 32.7305 177.221 32.0078L177.807 31.3926C178.607 32.1543 179.584 32.5352 180.736 32.5352H218.354C219.545 32.5352 220.521 32.1543 221.283 31.3926L221.869 32.0078C221.01 32.8672 220.58 34.5469 220.58 37.0469V38.3652C220.58 40.5723 221.01 42.0859 221.869 42.9062L221.283 43.4629C220.307 42.4668 218.012 41.9688 214.398 41.9688L199.838 42.6426C196.244 42.6426 193.959 42.1445 192.982 41.1484L192.367 41.7344C193.129 42.4766 193.51 43.4629 193.51 44.6934C193.51 45.9043 193.129 46.8809 192.367 47.623L192.982 48.1797C193.92 47.2031 195.893 46.7148 198.9 46.7148L211.176 47.3887C214.203 47.3887 216.205 46.9004 217.182 45.9238L217.797 46.5098C216.938 47.3691 216.508 49.166 216.508 51.9004V53.043C216.508 55.1328 216.938 56.6074 217.797 57.4668L217.182 58.082C216.244 57.1055 214.262 56.6172 211.234 56.6172L198.959 57.2617C195.951 57.2617 193.959 56.7734 192.982 55.7969L192.396 56.3828C193.217 57.2227 193.627 58.6875 193.627 60.7773L193.568 63.0625L193.07 66.5781C193.07 67.2812 193.324 67.6328 193.832 67.6328C194.359 67.6328 194.623 67.3008 194.623 66.6367Z" fill="white"/>
</svg>
