<svg width="66" height="26" viewBox="0 0 66 26" fill="none" xmlns="http://www.w3.org/2000/svg">
<path d="M9.96873 5.43285C10.7385 5.18636 11.5447 5.06132 12.356 5.06259C15.9974 5.06259 19.0376 7.54813 19.7339 10.8519L24.8959 9.84002C23.7112 4.22543 18.5481 4.37436e-06 12.356 4.37436e-06C10.977 -0.00111399 9.60691 0.212219 8.29883 0.631731L9.96873 5.43285Z" fill="#FFCC00"/>
<path d="M3.88315 21.7038L7.02182 18.0238C5.62084 16.7366 4.7368 14.8581 4.7368 12.7651C4.7368 10.6737 5.61955 8.79606 7.01971 7.51042L3.8808 3.83008C1.50138 6.01607 0 9.2092 0 12.7651C0 16.3232 1.50196 19.5173 3.88315 21.7038Z" fill="#00A0DE"/>
<path d="M19.7355 14.0437C19.0362 17.5423 15.9997 20.1706 12.36 20.1706C11.5247 20.1706 10.7204 20.0334 9.97083 19.7769L8.29883 24.8657C9.57412 25.2992 10.9397 25.534 12.36 25.534C18.5451 25.534 23.7069 21.0646 24.8959 15.1215L19.7355 14.0437Z" fill="#EC3413"/>
<path d="M29.2418 18.1473C29.0775 17.8893 28.8541 17.4765 28.7199 17.1727C27.9259 15.385 27.8879 13.5349 28.5584 11.759C29.2957 9.81125 30.7039 8.32011 32.5236 7.56089C34.8112 6.60607 37.3414 6.79431 39.5339 8.05606C40.9267 8.831 41.9141 10.0275 42.6639 11.7192L42.7334 11.8837L42.8631 12.2105C42.884 12.2634 42.9047 12.3144 42.9251 12.3636L29.2418 18.1473ZM33.8109 10.4308C32.1863 11.1079 31.3489 12.5859 31.521 14.3189L38.4028 11.4464C37.2194 10.0974 35.6791 9.65042 33.8109 10.4308ZM41.9208 18.4055L39.2608 16.6807L39.257 16.6845L39.1145 16.5913C38.704 17.2376 38.0631 17.761 37.2547 18.101C35.7164 18.7498 34.2909 18.583 33.2673 17.7123L33.1731 17.8511C33.1721 17.8495 33.1719 17.8483 33.1701 17.8483L31.4243 20.3815C31.8586 20.6741 32.3237 20.9213 32.8118 21.1187C34.7404 21.8956 36.7136 21.8596 38.6575 21.0397C40.0637 20.4487 41.1669 19.5476 41.9208 18.4054M47.7078 3.83008V17.9134L49.9654 18.8008L48.6825 21.7038L46.1905 20.6974C45.6311 20.4626 45.2505 20.1029 44.9621 19.6972C44.6866 19.2836 44.4805 18.716 44.4805 17.9517V3.8302L47.7078 3.83008ZM53.5564 14.3256C53.5577 13.1264 54.1037 12.0509 54.9677 11.32L52.6515 8.81515C51.0805 10.1618 50.0911 12.1297 50.0893 14.3222C50.0868 16.5154 51.0747 18.4852 52.644 19.8355L54.9576 17.3282C54.0978 16.5944 53.5554 15.5221 53.5564 14.3256ZM57.6718 18.3229C57.2157 18.3217 56.7765 18.2486 56.3669 18.1164L55.2608 21.3061C56.0368 21.5584 56.8497 21.6872 57.6681 21.6877C61.3357 21.6912 64.398 19.1674 65.1076 15.8125L61.7077 15.1391C61.321 16.9576 59.6607 18.3242 57.6718 18.3229ZM57.682 6.97112C56.8646 6.96963 56.0523 7.09643 55.2767 7.34661L56.3732 10.5393C56.7944 10.404 57.2351 10.3351 57.6787 10.335C59.6723 10.3369 61.3337 11.7116 61.7112 13.5352L65.1116 12.8664C64.4117 9.50654 61.3523 6.97345 57.6818 6.97124" fill="white"/>
</svg>
