<svg width="41" height="25" viewBox="0 0 41 25" fill="none" xmlns="http://www.w3.org/2000/svg">
<path d="M14.9165 2.57153H25.9722V21.4794H14.9165V2.57153Z" fill="#FF5F00"/>
<path d="M15.6186 12.0262C15.6186 8.18457 17.5138 4.77707 20.4268 2.57221C18.286 0.968745 15.5835 0 12.6354 0C5.65065 0 0 5.37831 0 12.0262C0 18.6741 5.65065 24.0524 12.6352 24.0524C15.5834 24.0524 18.2858 23.0837 20.4268 21.4801C17.5138 19.3087 15.6186 15.8679 15.6186 12.0262Z" fill="#EB001B"/>
<path d="M40.8892 12.0262C40.8892 18.674 35.2385 24.0524 28.254 24.0524C25.3058 24.0524 22.6034 23.0837 20.4624 21.4801C23.4106 19.2754 25.2708 15.8679 25.2708 12.0262C25.2708 8.18457 23.3754 4.77707 20.4624 2.57221C22.6032 0.968745 25.3058 0 28.254 0C35.2385 0 40.8892 5.41179 40.8892 12.0262Z" fill="#F79E1B"/>
</svg>
