<svg width="59" height="25" viewBox="0 0 59 25" fill="none" xmlns="http://www.w3.org/2000/svg">
<path d="M0 0H54C56.7614 0 59 2.23858 59 5V24.6977H5C2.23858 24.6977 0 22.4591 0 19.6977V0Z" fill="#1434CB"/>
<path d="M48.6662 19.6324L48.2444 17.4578H43.5306L42.7806 19.6169L39.0025 19.6247C41.4313 13.6079 43.2337 9.15107 44.41 6.25416C44.7175 5.49643 45.2631 5.10983 46.0675 5.11563C46.6825 5.12079 47.6862 5.12143 49.0787 5.11756L52 19.6266L48.6662 19.6324ZM44.59 14.479H47.6294L46.495 9.028L44.59 14.479ZM20.2412 5.1137L24.04 5.11756L18.1675 19.6343L14.3219 19.6304C13.3548 15.796 12.3998 11.9584 11.4569 8.11756C11.2694 7.3521 10.8981 6.81666 10.1837 6.56344C9.545 6.33792 8.48375 5.98934 7 5.51769V5.11756H13.0694C14.1194 5.11756 14.7325 5.6414 14.9294 6.71615C15.1281 7.79347 15.6281 10.5344 16.4294 14.9391L20.2412 5.1137ZM29.26 5.11756L26.2581 19.6324L22.6412 19.6266L25.6375 5.1137L29.26 5.11756ZM36.5912 4.84888C37.6731 4.84888 39.0362 5.19681 39.82 5.51769L39.1863 8.52542C38.4775 8.23161 37.3112 7.83535 36.3306 7.84888C34.9056 7.87401 34.0244 8.49063 34.0244 9.08213C34.0244 10.0448 35.5544 10.5299 37.1294 11.5815C38.9256 12.7799 39.1637 13.8566 39.1412 15.028C39.1169 17.4539 37.1294 19.8489 32.9369 19.8489C31.0244 19.8199 30.3344 19.6556 28.7744 19.0834L29.4344 15.9442C31.0225 16.6285 31.6956 16.8469 33.0531 16.8469C34.2963 16.8469 35.3631 16.3289 35.3725 15.4262C35.38 14.7844 34.9975 14.4655 33.6025 13.673C32.2075 12.8804 30.25 11.7806 30.2762 9.57117C30.3081 6.74514 32.905 4.84888 36.5912 4.84888Z" fill="white"/>
</svg>
