<svg width="30" height="35" viewBox="0 0 30 35" fill="none" xmlns="http://www.w3.org/2000/svg">
<path d="M22.2333 12.6028C24.4222 14.2135 27.1037 15.1612 29.9999 15.1612V9.42462C29.4517 9.42484 28.9051 9.36594 28.3688 9.24889V13.7644C25.4729 13.7644 22.7917 12.8168 20.6023 11.2063V22.913C20.6023 28.7694 15.9902 33.5165 10.3013 33.5165C8.17859 33.5165 6.20556 32.856 4.56665 31.723C6.43725 33.6919 9.04592 34.9132 11.9319 34.9132C17.6212 34.9132 22.2335 30.1661 22.2335 24.3094V12.6028H22.2333ZM24.2455 6.81536C23.1268 5.55738 22.3922 3.93164 22.2333 2.13428V1.39648H20.6877C21.0767 3.68084 22.4039 5.63245 24.2455 6.81536ZM8.16488 27.2291C7.53983 26.3857 7.20198 25.3537 7.20356 24.2927C7.20356 21.6143 9.31312 19.4425 11.9158 19.4425C12.4008 19.4422 12.8829 19.5189 13.3452 19.6698V13.8049C12.8049 13.7288 12.2598 13.6963 11.7148 13.7083V18.2731C11.2523 18.1222 10.7699 18.0456 10.2847 18.046C7.68217 18.046 5.57273 20.2175 5.57273 22.8963C5.57273 24.7904 6.6271 26.4303 8.16488 27.2291Z" fill="#FF004F"/>
<path d="M20.6027 11.2062C22.7921 12.8167 25.4731 13.7643 28.3691 13.7643V9.24877C26.7526 8.89429 25.3216 8.02482 24.2457 6.81536C22.404 5.63233 21.0771 3.68072 20.688 1.39648H16.6281V24.3092C16.6189 26.9804 14.513 29.1432 11.9159 29.1432C10.3856 29.1432 9.02596 28.3924 8.16496 27.229C6.62742 26.4303 5.57294 24.7903 5.57294 22.8964C5.57294 20.2178 7.68237 18.0461 10.2849 18.0461C10.7836 18.0461 11.2642 18.126 11.715 18.2732V13.7084C6.12596 13.8273 1.6311 18.528 1.6311 24.3093C1.6311 27.1953 2.75039 29.8116 4.56709 31.7233C6.206 32.856 8.17891 33.5167 10.3017 33.5167C15.9907 33.5167 20.6028 28.7693 20.6028 22.913L20.6027 11.2062Z" fill="black"/>
<path d="M28.369 9.2487V8.02802C26.9112 8.03019 25.4823 7.60999 24.2455 6.81541C25.3403 8.04915 26.7819 8.89994 28.369 9.24895M20.6877 1.39642C20.6506 1.17815 20.6222 0.958433 20.6024 0.737796V0H14.9967V22.913C14.9878 25.5839 12.8819 27.7467 10.2847 27.7467C9.54839 27.7478 8.82217 27.5706 8.16469 27.2293C9.02569 28.3924 10.3853 29.1431 11.9156 29.1431C14.5126 29.1431 16.6187 26.9806 16.6279 24.3094V1.39654L20.6877 1.39642ZM11.7151 13.7083V12.4086C11.2467 12.3427 10.7744 12.3097 10.3017 12.3098C4.61205 12.3098 0 17.0572 0 22.913C0 26.5843 1.81259 29.8199 4.56705 31.7231C2.75035 29.8115 1.63106 27.1952 1.63106 24.3093C1.63106 18.5281 6.1258 13.8272 11.7151 13.7083Z" fill="#00F2EA"/>
</svg>
