<svg width="30" height="30" viewBox="0 0 30 30" fill="none" xmlns="http://www.w3.org/2000/svg">
<path d="M22.9688 0H7.03125C3.148 0 0 3.148 0 7.03125V22.9688C0 26.852 3.148 30 7.03125 30H22.9688C26.852 30 30 26.852 30 22.9688V7.03125C30 3.148 26.852 0 22.9688 0Z" fill="url(#paint0_radial_467_284)"/>
<path d="M22.9688 0H7.03125C3.148 0 0 3.148 0 7.03125V22.9688C0 26.852 3.148 30 7.03125 30H22.9688C26.852 30 30 26.852 30 22.9688V7.03125C30 3.148 26.852 0 22.9688 0Z" fill="url(#paint1_radial_467_284)"/>
<path d="M15.0013 3.28125C11.8187 3.28125 11.4192 3.2952 10.1693 3.35203C8.92173 3.40922 8.07013 3.60668 7.32505 3.89648C6.55419 4.19578 5.9004 4.59621 5.24907 5.24777C4.59716 5.89922 4.19673 6.55301 3.89649 7.32352C3.60587 8.06883 3.40817 8.92078 3.35204 10.1678C3.29614 11.4178 3.28149 11.8174 3.28149 15.0001C3.28149 18.1828 3.29556 18.581 3.35228 19.8309C3.4097 21.0785 3.60716 21.9301 3.89673 22.6752C4.19626 23.4461 4.59669 24.0998 5.24825 24.7512C5.89946 25.4031 6.55325 25.8045 7.32353 26.1037C8.06919 26.3936 8.92091 26.591 10.1683 26.6482C11.4183 26.705 11.8174 26.719 14.9999 26.719C18.1828 26.719 18.581 26.705 19.8309 26.6482C21.0785 26.591 21.9311 26.3936 22.6767 26.1037C23.4472 25.8045 24.1001 25.4031 24.7512 24.7512C25.4031 24.0998 25.8034 23.4461 26.1038 22.6755C26.3918 21.9301 26.5896 21.0783 26.6482 19.8312C26.7043 18.5812 26.719 18.1828 26.719 15.0001C26.719 11.8174 26.7043 11.418 26.6482 10.168C26.5896 8.92043 26.3918 8.06895 26.1038 7.32387C25.8034 6.55301 25.4031 5.89922 24.7512 5.24777C24.0994 4.59598 23.4475 4.19555 22.676 3.8966C21.929 3.60668 21.0769 3.4091 19.8293 3.35203C18.5793 3.2952 18.1813 3.28125 14.9977 3.28125H15.0013ZM13.95 5.39309C14.2621 5.39262 14.6102 5.39309 15.0013 5.39309C18.1303 5.39309 18.5011 5.40434 19.7367 5.46047C20.8793 5.51273 21.4995 5.70363 21.9125 5.86406C22.4595 6.07641 22.8493 6.33035 23.2593 6.74063C23.6694 7.15078 23.9233 7.54137 24.1362 8.08828C24.2966 8.50078 24.4877 9.12094 24.5398 10.2635C24.5959 11.4989 24.6081 11.8699 24.6081 14.9974C24.6081 18.1249 24.5959 18.4961 24.5398 19.7313C24.4875 20.8739 24.2966 21.4941 24.1362 21.9067C23.9238 22.4536 23.6694 22.843 23.2593 23.2529C22.8491 23.6631 22.4597 23.9169 21.9125 24.1294C21.4999 24.2905 20.8793 24.4809 19.7367 24.5332C18.5013 24.5893 18.1303 24.6015 15.0013 24.6015C11.8722 24.6015 11.5013 24.5893 10.266 24.5332C9.12341 24.4805 8.50325 24.2896 8.08981 24.1291C7.54302 23.9167 7.15231 23.6629 6.74216 23.2527C6.332 22.8425 6.07817 22.4529 5.86524 21.9057C5.70481 21.4931 5.51368 20.873 5.46165 19.7304C5.40552 18.495 5.39427 18.124 5.39427 14.9945C5.39427 11.865 5.40552 11.496 5.46165 10.2606C5.51392 9.11801 5.70481 8.49785 5.86524 8.08477C6.07771 7.53785 6.332 7.14727 6.74228 6.73711C7.15255 6.32695 7.54302 6.07301 8.08993 5.8602C8.50302 5.69906 9.12341 5.50863 10.266 5.45613C11.347 5.40727 11.766 5.39262 13.95 5.39016V5.39309ZM21.2568 7.33887C20.4804 7.33887 19.8505 7.96816 19.8505 8.74465C19.8505 9.52102 20.4804 10.1509 21.2568 10.1509C22.0331 10.1509 22.663 9.52102 22.663 8.74465C22.663 7.96828 22.0331 7.3384 21.2568 7.3384V7.33887ZM15.0013 8.98195C11.6779 8.98195 8.98325 11.6766 8.98325 15.0001C8.98325 18.3237 11.6779 21.017 15.0013 21.017C18.3249 21.017 21.0185 18.3237 21.0185 15.0001C21.0185 11.6767 18.3246 8.98195 15.0011 8.98195H15.0013ZM15.0013 11.0938C17.1586 11.0938 18.9076 12.8426 18.9076 15.0001C18.9076 17.1574 17.1586 18.9064 15.0013 18.9064C12.844 18.9064 11.0951 17.1574 11.0951 15.0001C11.0951 12.8426 12.8439 11.0938 15.0013 11.0938Z" fill="white"/>
<defs>
<radialGradient id="paint0_radial_467_284" cx="0" cy="0" r="1" gradientUnits="userSpaceOnUse" gradientTransform="translate(7.96875 32.3106) rotate(-90) scale(29.7322 27.6533)">
<stop stop-color="#FFDD55"/>
<stop offset="0.1" stop-color="#FFDD55"/>
<stop offset="0.5" stop-color="#FF543E"/>
<stop offset="1" stop-color="#C837AB"/>
</radialGradient>
<radialGradient id="paint1_radial_467_284" cx="0" cy="0" r="1" gradientUnits="userSpaceOnUse" gradientTransform="translate(-5.02512 2.16105) rotate(78.681) scale(13.2905 54.7837)">
<stop stop-color="#3771C8"/>
<stop offset="0.128" stop-color="#3771C8"/>
<stop offset="1" stop-color="#6600FF" stop-opacity="0"/>
</radialGradient>
</defs>
</svg>
