<svg width="30" height="30" viewBox="0 0 30 30" fill="none" xmlns="http://www.w3.org/2000/svg">
<path d="M27.7869 0.000113606H2.21311C1.63286 -0.00579163 1.07397 0.218729 0.659063 0.624411C0.244158 1.03009 0.00713392 1.5838 0 2.16403V27.8409C0.00842406 28.4203 0.246015 28.9727 0.66078 29.3773C1.07554 29.782 1.6337 30.0058 2.21311 29.9999H27.7869C28.3672 30.0045 28.9257 29.7792 29.3404 29.3733C29.7551 28.9673 29.9922 28.4138 30 27.8335V2.15665C29.9897 1.57812 29.7514 1.02706 29.337 0.623238C28.9225 0.219418 28.3655 -0.00451463 27.7869 0.000113606Z" fill="#0076B2"/>
<path d="M4.93613 11.4211H9.18066V25.0782H4.93613V11.4211ZM7.05957 4.62427C7.5464 4.62427 8.02229 4.76866 8.42704 5.03917C8.83179 5.30969 9.14721 5.69417 9.3334 6.14399C9.5196 6.5938 9.56819 7.08873 9.47305 7.56617C9.3779 8.04361 9.14329 8.4821 8.79889 8.82618C8.45448 9.17025 8.01577 9.40445 7.53824 9.49914C7.06071 9.59383 6.56582 9.54476 6.11619 9.35814C5.66655 9.17152 5.28237 8.85573 5.01224 8.45072C4.74211 8.04572 4.59817 7.56969 4.59863 7.08286C4.59926 6.43059 4.85881 5.80524 5.32025 5.34423C5.7817 4.88322 6.4073 4.62427 7.05957 4.62427ZM11.8432 11.4211H15.9119V13.2961H15.9682C16.5354 12.2227 17.9182 11.0907 19.983 11.0907C24.2814 11.0813 25.0783 13.9102 25.0783 17.5782V25.0782H20.8338V18.4336C20.8338 16.8516 20.8057 14.8149 18.6283 14.8149C16.451 14.8149 16.0807 16.5399 16.0807 18.3305V25.0782H11.8432V11.4211Z" fill="white"/>
</svg>
