<svg width="35" height="35" viewBox="0 0 35 35" fill="none" xmlns="http://www.w3.org/2000/svg">
<path d="M1.14171 17.8283C1.14088 20.6367 1.92012 23.3789 3.40183 25.796L1 34.0543L9.97447 31.8383C12.4567 33.1108 15.2378 33.7776 18.064 33.7778H18.0715C27.4013 33.7778 34.996 26.6284 35 17.8408C35.0018 13.5826 33.2424 9.57852 30.046 6.56603C26.85 3.5538 22.5996 1.89403 18.0708 1.89209C8.73985 1.89209 1.14569 9.04111 1.14184 17.8283" fill="url(#paint0_linear_467_305)"/>
<path d="M0.146289 17.3425C0.145332 20.3991 0.947461 23.383 2.47242 26.0131L0 35L9.23822 32.5886C11.7837 33.9702 14.6496 34.6987 17.5658 34.6997H17.5733C27.1775 34.6997 34.9959 26.9187 35 17.3563C35.0016 12.7221 33.1904 8.3643 29.9004 5.08612C26.61 1.80834 22.235 0.00190552 17.5733 0C7.96742 0 0.150117 7.77999 0.146289 17.3425ZM5.64799 25.5602L5.30305 25.0151C3.85301 22.7197 3.08766 20.0672 3.08875 17.3435C3.09176 9.39546 9.58918 2.92906 17.5788 2.92906C21.4479 2.9307 25.0841 4.43225 27.819 7.15661C30.5538 9.88124 32.0586 13.5031 32.0577 17.3552C32.0541 25.3033 25.5566 31.7705 17.5733 31.7705H17.5675C14.9681 31.7692 12.4187 31.0742 10.1954 29.7609L9.66629 29.4485L4.18414 30.8794L5.64799 25.5602Z" fill="#E8E8E8"/>
<path d="M26.1468 20.6425L22.9852 19.8286C22.7813 19.7752 22.5651 19.7726 22.3596 19.821C22.1541 19.8695 21.9669 19.9672 21.8178 20.1039L21.045 20.8112C20.8848 20.9571 20.6807 21.0573 20.4581 21.0994C20.2354 21.1414 20.004 21.1236 19.7925 21.048C18.2977 20.5049 15.1508 17.9952 14.3469 16.7388C14.2333 16.5616 14.1813 16.3576 14.1977 16.1534C14.214 15.9491 14.298 15.7541 14.4386 15.5935L15.1131 14.8092C15.243 14.6589 15.3252 14.4795 15.3508 14.2903C15.3765 14.101 15.3447 13.909 15.2588 13.7349L13.9294 11.0357C13.8542 10.8849 13.7413 10.7518 13.5996 10.6471C13.4579 10.5423 13.2912 10.4687 13.1127 10.4319C12.9342 10.3952 12.7487 10.3964 12.5708 10.4355C12.3929 10.4745 12.2274 10.5503 12.0874 10.6569C11.2049 11.3272 10.157 12.3439 10.031 13.4729C9.80666 15.4603 10.7563 17.9656 14.3485 20.9755C18.499 24.4515 21.8244 24.9117 23.9872 24.4396C25.2152 24.1733 26.1976 23.1034 26.8149 22.2288C26.9136 22.0899 26.9748 21.932 26.9937 21.7678C27.0126 21.6036 26.9886 21.4376 26.9237 21.2833C26.8587 21.129 26.7545 20.9907 26.6196 20.8794C26.4847 20.7681 26.3228 20.6869 26.1468 20.6425Z" fill="#E8E8E8"/>
<defs>
<linearGradient id="paint0_linear_467_305" x1="1701" y1="3218.11" x2="1701" y2="1.89209" gradientUnits="userSpaceOnUse">
<stop stop-color="#1FAF38"/>
<stop offset="1" stop-color="#60D669"/>
</linearGradient>
</defs>
</svg>
