<svg width="32" height="32" viewBox="0 0 32 32" fill="none" xmlns="http://www.w3.org/2000/svg">
<path d="M32 16C32 13.8989 31.5861 11.8183 30.7821 9.87706C29.978 7.93586 28.7994 6.17203 27.3137 4.68629C25.828 3.20055 24.0641 2.022 22.1229 1.21793C20.1817 0.413852 18.1012 0 16 0V3.2C18.5315 3.19994 21.0062 3.95053 23.1111 5.35685C25.216 6.76317 26.8567 8.76207 27.8256 11.1008C28.469 12.654 28.8001 14.3188 28.8 16H32ZM0 12.8V4.8C0 4.37565 0.168571 3.96869 0.468629 3.66863C0.768687 3.36857 1.17565 3.2 1.6 3.2H9.6C10.0243 3.2 10.4313 3.36857 10.7314 3.66863C11.0314 3.96869 11.2 4.37565 11.2 4.8V11.2C11.2 11.6243 11.0314 12.0313 10.7314 12.3314C10.4313 12.6314 10.0243 12.8 9.6 12.8H6.4C6.4 16.1948 7.74857 19.4505 10.149 21.851C12.5495 24.2514 15.8052 25.6 19.2 25.6V22.4C19.2 21.9757 19.3686 21.5687 19.6686 21.2686C19.9687 20.9686 20.3757 20.8 20.8 20.8H27.2C27.6243 20.8 28.0313 20.9686 28.3314 21.2686C28.6314 21.5687 28.8 21.9757 28.8 22.4V30.4C28.8 30.8243 28.6314 31.2313 28.3314 31.5314C28.0313 31.8314 27.6243 32 27.2 32H19.2C8.5968 32 0 23.4032 0 12.8Z" fill="white"/>
<path d="M24.8688 12.3265C25.3514 13.4912 25.5998 14.7395 25.6 16.0001H22.72C22.72 14.2179 22.012 12.5086 20.7518 11.2484C19.4915 9.98814 17.7823 9.28015 16 9.28015V6.40015C17.8986 6.40025 19.7546 6.96334 21.3332 8.01823C22.9119 9.07311 24.1423 10.5724 24.8688 12.3265Z" fill="white"/>
</svg>
