<svg width="30" height="30" viewBox="0 0 30 30" fill="none" xmlns="http://www.w3.org/2000/svg">
<path d="M8.27 26.25C7.69417 26.25 7.21375 26.0575 6.82875 25.6725C6.44375 25.2875 6.25083 24.8071 6.25 24.2313V10.7687C6.25 10.1937 6.44292 9.71375 6.82875 9.32875C7.21458 8.94375 7.695 8.75083 8.27 8.75H10.625V8.125C10.625 6.91 11.0504 5.87708 11.9012 5.02625C12.7521 4.17542 13.785 3.75 15 3.75C16.215 3.75 17.2479 4.17542 18.0988 5.02625C18.9496 5.87708 19.375 6.91 19.375 8.125V8.75H21.7313C22.3062 8.75 22.7863 8.94292 23.1713 9.32875C23.5563 9.71458 23.7492 10.195 23.75 10.77V24.2313C23.75 24.8062 23.5571 25.2867 23.1713 25.6725C22.7854 26.0583 22.3054 26.2508 21.7313 26.25H8.27ZM8.27 25H21.7313C21.9229 25 22.0992 24.92 22.26 24.76C22.4208 24.6 22.5008 24.4233 22.5 24.23V10.77C22.5 10.5775 22.42 10.4008 22.26 10.24C22.1 10.0792 21.9233 9.99917 21.73 10H19.375V13.125C19.375 13.3033 19.3154 13.4521 19.1963 13.5713C19.0771 13.6904 18.9283 13.75 18.75 13.75C18.5717 13.75 18.4229 13.6904 18.3037 13.5713C18.1846 13.4521 18.125 13.3033 18.125 13.125V10H11.875V13.125C11.875 13.3033 11.8154 13.4521 11.6963 13.5713C11.5771 13.6904 11.4283 13.75 11.25 13.75C11.0717 13.75 10.9229 13.6904 10.8037 13.5713C10.6846 13.4521 10.625 13.3033 10.625 13.125V10H8.27C8.0775 10 7.90083 10.08 7.74 10.24C7.57917 10.4 7.49917 10.5767 7.5 10.77V24.2313C7.5 24.4229 7.58 24.5992 7.74 24.76C7.9 24.9208 8.07625 25.0008 8.26875 25M11.875 8.75H18.125V8.125C18.125 7.245 17.8242 6.50417 17.2225 5.9025C16.6208 5.30083 15.88 5 15 5C14.12 5 13.3792 5.30083 12.7775 5.9025C12.1758 6.50417 11.875 7.245 11.875 8.125V8.75Z" fill="black"/>
</svg>
