<svg width="32" height="32" viewBox="0 0 32 32" fill="none" xmlns="http://www.w3.org/2000/svg">
<rect width="32" height="32" rx="5" fill="black"/>
<path d="M20.6871 20.945H25.7271C25.7271 22.1583 25.5288 23.2433 25.1322 24.2C24.7355 25.1567 24.1871 25.9733 23.4871 26.65C22.7871 27.3267 21.9588 27.84 21.0021 28.19C20.0455 28.5633 19.0071 28.75 17.8871 28.75H13.1621C12.3921 28.75 11.5755 28.6333 10.7121 28.4C9.84882 28.1667 9.04382 27.77 8.29715 27.21C7.57382 26.6733 6.96715 25.95 6.47715 25.04C5.98715 24.1067 5.74215 22.9517 5.74215 21.575V11.215C5.74215 10.1183 5.92882 9.09167 6.30215 8.135C6.69882 7.155 7.25882 6.315 7.98215 5.615C8.70548 4.89167 9.58048 4.32 10.6071 3.9C11.6571 3.48 12.8238 3.27 14.1071 3.27H17.9571C18.9138 3.27 19.7888 3.42167 20.5821 3.725C21.3988 4.005 22.1221 4.40166 22.7521 4.915C23.3821 5.405 23.9188 6 24.3621 6.7C24.8288 7.4 25.2021 8.15833 25.4821 8.975L20.6871 10.48C20.3838 9.82667 19.9405 9.30167 19.3571 8.905C18.7971 8.485 18.1788 8.275 17.5021 8.275H14.8421C14.2355 8.275 13.7105 8.39167 13.2671 8.625C12.8238 8.835 12.4505 9.115 12.1471 9.465C11.8671 9.815 11.6571 10.2117 11.5171 10.655C11.3771 11.0983 11.3071 11.5533 11.3071 12.02V20.385C11.3071 20.9683 11.3421 21.505 11.4121 21.995C11.5055 22.4617 11.6688 22.87 11.9021 23.22C12.1355 23.57 12.4505 23.85 12.8471 24.06C13.2671 24.2467 13.8038 24.34 14.4571 24.34H17.4321C18.5055 24.34 19.2988 24.0133 19.8121 23.36C20.3255 22.6833 20.6171 21.8783 20.6871 20.945Z" fill="white"/>
</svg>
